<svg width="35" height="35" viewBox="0 0 35 35" fill="none" xmlns="http://www.w3.org/2000/svg">
<path d="M12.9587 10.456C13.2256 10.4633 13.5217 10.4779 13.8031 11.1021C13.9898 11.5177 14.3033 12.2833 14.56 12.9075C14.7598 13.3931 14.9231 13.7927 14.964 13.8744C15.0573 14.061 15.1156 14.2754 14.9931 14.5277L14.9523 14.6123C14.8693 14.8085 14.7561 14.9906 14.6169 15.1519L14.4083 15.3998C14.2844 15.5514 14.1604 15.7002 14.0554 15.8052C13.8673 15.9919 13.6733 16.1931 13.8892 16.5664C14.105 16.9398 14.8633 18.1677 15.9819 19.1579C16.8 19.8958 17.7387 20.4877 18.7571 20.9079C18.8592 20.9516 18.9418 20.9886 19.005 21.0187C19.3798 21.2054 19.6029 21.1762 19.8187 20.9254C20.036 20.6731 20.7565 19.8331 21.0102 19.4598C21.2552 19.0864 21.506 19.1448 21.8531 19.2731C22.2002 19.4029 24.0465 20.3085 24.4212 20.4937L24.6298 20.5958C24.8908 20.7198 25.0673 20.8058 25.1431 20.9312C25.2365 21.0902 25.2365 21.8354 24.9273 22.7133C24.6094 23.5883 23.0796 24.4283 22.3869 24.4925L22.19 24.5158C21.5542 24.5916 20.7492 24.6908 17.8792 23.5606C14.3412 22.1694 12.0065 18.7189 11.5354 18.0204L11.4581 17.9096L11.4494 17.8979C11.235 17.6106 9.92104 15.8533 9.92104 14.0391C9.92104 12.3037 10.7771 11.3996 11.1665 10.9883L11.235 10.9154C11.361 10.773 11.515 10.6581 11.6874 10.5778C11.8597 10.4975 12.0468 10.4536 12.2369 10.4487C12.4892 10.4487 12.7429 10.4487 12.9587 10.456Z" fill="white"/>
<path fill-rule="evenodd" clip-rule="evenodd" d="M3.185 31.1076C3.15752 31.2065 3.15661 31.3108 3.18235 31.4102C3.20809 31.5095 3.25958 31.6003 3.33162 31.6734C3.40366 31.7464 3.49369 31.7992 3.59265 31.8264C3.6916 31.8535 3.79597 31.8541 3.89521 31.828L10.6138 30.0722C12.7454 31.2268 15.1312 31.8318 17.5554 31.8324H17.5613C25.5617 31.8324 32.0833 25.3487 32.0833 17.3774C32.0883 15.4765 31.7151 13.5937 30.9855 11.8384C30.256 10.0831 29.1846 8.4904 27.8338 7.15303C26.4852 5.80468 24.8834 4.73624 23.1205 4.00919C21.3575 3.28214 19.4682 2.91081 17.5613 2.91657C9.56084 2.91657 3.03917 9.40032 3.03917 17.3701C3.03917 19.9062 3.70709 22.397 4.97875 24.5947L3.185 31.1076ZM7.08896 25.1751C7.16607 24.8952 7.1867 24.6028 7.14964 24.3149C7.11259 24.0269 7.01859 23.7493 6.87313 23.498C5.79563 21.6354 5.22776 19.5219 5.22667 17.3701C5.22667 10.618 10.7581 5.10407 17.5613 5.10407C20.8717 5.10407 23.9604 6.38303 26.2908 8.70324C27.4374 9.83739 28.3467 11.1885 28.9657 12.6778C29.5846 14.167 29.9008 15.7646 29.8958 17.3774C29.8958 24.1295 24.3644 29.6449 17.5613 29.6449H17.554C15.4944 29.6438 13.4675 29.1296 11.6565 28.1487C11.1683 27.8844 10.598 27.8156 10.061 27.9562L6.03313 29.0076L7.08896 25.1751Z" fill="white"/>
</svg>
