<?xml version="1.0" encoding="UTF-8"?>
<!DOCTYPE svg PUBLIC "-//W3C//DTD SVG 1.1//EN" "http://www.w3.org/Graphics/SVG/1.1/DTD/svg11.dtd">
<!-- Creator: CorelDRAW 2021 (64 Bit) -->
<svg xmlns="http://www.w3.org/2000/svg" xml:space="preserve" width="99.4598mm" height="109.931mm" version="1.1" style="shape-rendering:geometricPrecision; text-rendering:geometricPrecision; image-rendering:optimizeQuality; fill-rule:evenodd; clip-rule:evenodd"
viewBox="0 0 9931.74 10977.37"
 xmlns:xlink="http://www.w3.org/1999/xlink"
 xmlns:xodm="http://www.corel.com/coreldraw/odm/2003">
 <defs>
  <style type="text/css">
   <![CDATA[
    .fil2 {fill:#D6A943}
    .fil0 {fill:#FEFEFE;fill-rule:nonzero}
    .fil1 {fill:url(#id0)}
   ]]>
  </style>
  <linearGradient id="id0" gradientUnits="objectBoundingBox" x1="83.7775%" y1="72.4162%" x2="10.6851%" y2="72.4162%">
   <stop offset="0" style="stop-opacity:1; stop-color:#C4271A"/>
   <stop offset="1" style="stop-opacity:1; stop-color:#8E201F"/>
  </linearGradient>
 </defs>
 <g id="Camada_x0020_1">
  <metadata id="CorelCorpID_0Corel-Layer"/>
  <path class="fil0" d="M656.63 10925.8c-65,34.38 -146.13,51.58 -242.99,51.58 -125.16,0 -225.38,-40.25 -300.64,-120.98 -75.26,-80.71 -113,-186.79 -113,-317.82 0,-140.89 42.35,-254.72 127.05,-341.73 84.7,-86.8 192.03,-130.19 322.23,-130.19 83.44,0 152.63,12.15 207.35,36.48l0 109.43c-62.9,-35.22 -132.5,-52.83 -208.61,-52.83 -101.05,0 -182.81,33.76 -245.71,101.47 -62.69,67.51 -94.14,157.87 -94.14,270.87 0,107.34 29.35,192.87 88.05,256.61 58.71,63.74 135.65,95.6 231.04,95.6 88.26,0 164.78,-19.71 229.36,-59.13l0 100.64zm821.26 -252.84l-444.04 0c1.68,70.23 20.55,124.53 56.4,162.69 36.06,38.36 85.54,57.45 148.44,57.45 70.86,0 135.85,-23.49 195.18,-70.45l0 94.34c-55.14,40.25 -128.31,60.38 -219.09,60.38 -88.68,0 -158.49,-28.52 -209.23,-85.75 -50.74,-57.24 -76.1,-137.74 -76.1,-241.31 0,-98.12 27.67,-177.79 83.23,-239.63 55.55,-61.64 124.32,-92.46 206.71,-92.46 82.18,0 145.92,26.62 191,79.88 45.08,53.25 67.5,127.26 67.5,222.02l0 52.83zm-103.15 -85.54c-0.42,-58.29 -14.46,-103.78 -42.14,-136.27 -27.67,-32.49 -66.04,-48.64 -115.09,-48.64 -47.38,0 -87.84,16.99 -120.97,51.16 -33.12,34.17 -53.67,78.62 -61.43,133.76l339.63 0zm926.73 374.85l-100.64 0 0 -359.14c0,-133.76 -48.85,-200.63 -146.34,-200.63 -50.32,0 -92.04,18.86 -124.95,56.82 -32.91,37.95 -49.48,85.96 -49.48,143.81l0 359.14 -100.63 0 0 -628.96 100.63 0 0 104.41 2.52 0c47.38,-79.67 116.15,-119.5 206.3,-119.5 68.76,0 121.39,22.22 157.86,66.66 36.48,44.45 54.72,108.6 54.72,192.67l0 384.71zm631.12 -5.66c-23.7,13 -55.14,19.5 -93.93,19.5 -110.06,0 -165.2,-61.43 -165.2,-184.5l0 -372.76 -108.18 0 0 -85.55 108.18 0 0 -153.67 100.64 -32.49 0 186.16 158.49 0 0 85.55 -158.49 0 0 355.35c0,42.35 7.12,72.55 21.59,90.57 14.26,18.03 37.95,27.05 71.28,27.05 25.37,0 47.17,-6.92 65.63,-20.97l0 85.75zm612.03 -521.19c-17.61,-13.63 -42.98,-20.33 -76.31,-20.33 -42.98,0 -79.04,20.33 -107.98,60.79 -28.93,40.46 -43.4,95.81 -43.4,165.83l0 320.56 -100.63 0 0 -628.96 100.63 0 0 129.57 2.52 0c14.26,-44.24 36.27,-78.84 65.84,-103.57 29.56,-24.95 62.47,-37.32 98.95,-37.32 26.42,0 46.54,2.94 60.38,8.6l0 104.82zm521.26 541.95c-92.88,0 -167.1,-29.36 -222.44,-88.26 -55.56,-58.71 -83.23,-136.69 -83.23,-233.97 0,-105.66 28.93,-188.27 86.59,-247.8 57.65,-59.33 135.65,-89.1 233.96,-89.1 93.72,0 166.88,28.93 219.51,86.8 52.62,57.66 78.83,137.74 78.83,240.26 0,100.43 -28.3,180.93 -85.12,241.31 -56.6,60.58 -132.71,90.78 -228.09,90.78zm7.54 -574.87c-64.78,0 -115.93,22.01 -153.67,66.25 -37.53,44.24 -56.4,105.04 -56.4,182.82 0,74.63 19.08,133.76 57.03,176.74 38.16,43.19 89.1,64.79 153.04,64.79 65,0 115.1,-21.18 150.11,-63.53 35.01,-42.35 52.41,-102.52 52.41,-180.51 0,-78.83 -17.41,-139.63 -52.41,-182.4 -35.01,-42.77 -85.12,-64.15 -150.11,-64.15zm1872.68 559.77l-103.15 0 0 -590.79c0,-46.54 3.15,-103.78 9.23,-171.28l-2.52 0c-9.86,39.83 -18.66,68.13 -26.42,85.33l-301.06 676.75 -50.31 0 -300.44 -671.73c-8.59,-19.7 -17.4,-49.68 -26.41,-90.35l-2.52 0c3.15,35.22 4.82,92.87 4.82,172.54l0 589.53 -99.38 0 0 -880.54 136.27 0 270.03 614.07c20.96,46.96 34.38,82.18 40.67,105.67l3.56 0c17.61,-48.43 31.65,-84.49 42.35,-108.18l275.69 -611.55 129.56 0 0 880.54zm875.15 0l-100.64 0 0 -99.59 -2.52 0c-41.72,76.53 -106.5,114.69 -194.13,114.69 -149.91,0 -224.75,-89.31 -224.75,-267.94l0 -376.12 100.64 0 0 360.39c0,132.92 50.73,199.38 152.2,199.38 49.06,0 89.31,-18.24 120.97,-54.51 31.66,-36.27 47.59,-83.65 47.59,-142.36l0 -362.91 100.64 0 0 628.96zm315.39 -22.64l0 -108.18c54.71,41.09 115.09,61.64 180.92,61.64 88.26,0 132.29,-29.78 132.29,-89.1 0,-16.78 -3.77,-31.04 -11.31,-42.77 -7.55,-11.74 -17.82,-22.02 -30.62,-31.04 -12.99,-9.01 -28.09,-17.19 -45.49,-24.32 -17.19,-7.13 -36.06,-14.68 -55.97,-22.44 -27.89,-11.1 -52.21,-22.22 -73.18,-33.54 -21.17,-11.32 -38.78,-23.9 -52.82,-38.16 -14.05,-14.05 -24.74,-30.19 -31.87,-48.22 -7.13,-18.02 -10.69,-39.2 -10.69,-63.31 0,-29.57 6.71,-55.56 20.13,-78.42 13.63,-22.64 31.65,-41.72 54.09,-57.23 22.43,-15.31 48.01,-26.84 76.94,-34.59 28.72,-7.76 58.5,-11.74 89.1,-11.74 54.3,0 102.94,9.23 145.92,27.67l0 101.89c-46.12,-30.19 -99.17,-45.29 -159.34,-45.29 -18.65,0 -35.64,2.1 -50.74,6.5 -15.09,4.4 -28.09,10.48 -38.99,18.23 -10.68,7.76 -19.07,17.2 -25.15,28.1 -5.87,10.89 -8.81,23.06 -8.81,36.27 0,16.35 2.94,30.19 8.81,41.3 6.08,10.9 14.68,20.75 26.2,29.35 11.32,8.6 25.37,16.57 41.51,23.49 16.36,6.92 35.02,14.46 55.77,22.64 27.88,10.69 52.83,21.6 74.84,32.91 22.02,11.32 40.88,24.12 56.4,38.17 15.52,14.04 27.46,30.4 35.85,48.84 8.39,18.45 12.58,40.46 12.58,65.84 0,31.24 -6.92,58.29 -20.55,81.13 -13.62,23.06 -32.07,42.14 -54.92,57.24 -22.86,15.09 -49.27,26.41 -79.05,33.75 -29.77,7.34 -61.21,11.11 -93.92,11.11 -64.58,0 -120.56,-12.58 -167.93,-37.74zm772.41 -766.07c-18.02,0 -33.54,-6.08 -46.32,-18.44 -12.79,-12.16 -19.08,-27.89 -19.08,-46.75 0,-18.66 6.29,-34.39 19.08,-46.96 12.78,-12.37 28.3,-18.66 46.32,-18.66 18.45,0 34.18,6.29 47.17,18.66 13,12.57 19.5,28.3 19.5,46.96 0,18.02 -6.5,33.54 -19.5,46.12 -12.99,12.78 -28.72,19.07 -47.17,19.07zm49.06 788.71l-100.63 0 0 -628.96 100.63 0 0 628.96zm782.28 -28.3c-48.22,28.93 -105.67,43.4 -171.91,43.4 -89.73,0 -162.07,-29.15 -217.2,-87.63 -55.14,-58.5 -82.6,-134.18 -82.6,-227.26 0,-103.57 29.77,-187.01 89.1,-249.9 59.32,-62.9 138.57,-94.34 237.74,-94.34 55.14,0 103.99,10.28 146.13,30.61l0 102.73c-46.75,-32.7 -96.65,-49.06 -149.91,-49.06 -64.36,0 -116.98,23.06 -158.28,69.39 -41.09,46.12 -61.64,106.93 -61.64,181.98 0,74 19.29,132.29 58.08,175.06 38.57,42.77 90.57,64.16 155.77,64.16 54.72,0 106.51,-18.24 154.73,-54.72l0 95.6zm751.66 28.3l-100.63 0 0 -98.33 -2.52 0c-43.82,75.69 -108.18,113.43 -193.51,113.43 -62.68,0 -111.74,-16.57 -147.17,-49.9 -35.44,-33.12 -53.04,-77.15 -53.04,-132.08 0,-117.61 69.18,-186.17 207.55,-205.46l188.69 -26.42c0,-107.34 -43.19,-161.01 -129.56,-161.01 -75.69,0 -144.03,25.99 -205.05,77.99l0 -103.15c61.85,-39.41 132.92,-59.12 213.63,-59.12 147.81,0 221.6,78.2 221.6,234.8l0 409.24zm-100.63 -318.25l-151.79 20.97c-46.75,6.5 -81.97,18.23 -105.66,34.8 -23.7,16.78 -35.65,46.12 -35.65,88.47 0,30.82 10.9,55.98 32.92,75.47 21.8,19.5 51.15,29.36 87.42,29.36 50.1,0 91.4,-17.61 123.9,-52.62 32.49,-35.22 48.85,-79.67 48.85,-133.55l0 -62.9zm540.33 318.25l-100.63 0 0 -930.86 100.63 0 0 930.86z"/>
  <path class="fil0" d="M3795.48 9102.26l-27.03 454.49 -1180.15 0 0 -77.98c20.18,-1.49 46.87,-4.45 80.4,-9.28 33.53,-4.83 55.43,-9.66 65.35,-14.49 21.57,-11.13 36.62,-25.24 44.83,-42.7 8.56,-17.08 12.66,-39.35 12.66,-66.1l0 -1108.74c0,-23.77 -3.76,-44.93 -10.94,-63.5 -7.53,-18.56 -22.93,-33.41 -46.54,-45.3 -18.13,-9.29 -42.43,-17.45 -72.88,-24.88 -30.46,-7.05 -54.75,-11.5 -72.88,-12.99l0 -77.98 1100.42 0 0 372.06 -75.96 0c-13.35,-54.95 -42.09,-113.25 -86.57,-175.26 -44.15,-61.64 -86.24,-95.42 -126.26,-101.36 -20.88,-2.61 -45.51,-4.83 -73.91,-6.32 -28.75,-1.48 -61.25,-2.23 -98.21,-2.23l-222.76 0 0 612.67 159.8 0c50.99,0 88.63,-5.2 112.23,-15.6 23.62,-10.76 44.15,-28.22 62.28,-52.72 14.72,-21.16 27.03,-49.01 37.3,-84.29 10.27,-34.9 17.11,-67.95 20.53,-99.14l75.96 0 0 603.75 -75.96 0c-2.74,-34.9 -9.92,-71.67 -21.56,-110.28 -11.63,-38.61 -23.61,-66.83 -36.27,-84.29 -20.53,-28.22 -44.14,-46.41 -70.49,-55.32 -26.34,-8.54 -60.9,-13 -104.02,-13l-159.8 0 0 463.04c0,46.41 3.09,82.8 8.9,109.53 6.17,26.73 17.8,47.16 35.25,60.89 17.12,13.74 41.06,22.66 70.84,26.74 30.11,4.08 72.88,5.94 128.31,5.94 21.91,0 50.99,0 86.92,0 35.93,0 66.37,-1.49 91.02,-4.46 25.31,-2.97 51.67,-8.17 78.7,-15.59 27.03,-7.8 46.19,-18.19 57.48,-31.2 30.81,-34.53 62.97,-87.25 96.5,-158.17 33.88,-70.56 55.43,-122.53 64.67,-155.96l71.86 0zm1657.64 454.49l-383.24 0c-84.86,-144.44 -161.5,-269.2 -229.94,-374.28 -68.43,-105.08 -142.69,-213.5 -222.75,-325.27l-145.43 0 0 489.02c0,25.25 3.76,47.53 10.95,66.84 7.53,19.3 22.93,33.78 47.22,43.81 11.97,5.2 32.85,10.03 62.96,14.49 29.77,4.08 55.44,6.68 75.97,7.42l0 77.98 -599.5 0 0 -77.98c16.09,-1.49 39.01,-4.08 69.13,-7.42 30.11,-3.71 51.32,-8.55 62.96,-14.49 20.18,-9.28 34.55,-23.02 43.45,-41.21 8.9,-18.19 13.34,-41.22 13.34,-69.44l0 -1115.05c0,-25.62 -3.42,-47.9 -9.92,-67.58 -6.51,-19.68 -22.24,-34.53 -46.87,-44.56 -16.43,-6.31 -37.99,-12.62 -64.34,-17.82 -26.69,-5.57 -49.27,-8.91 -67.75,-10.4l0 -77.98 655.95 0c59.88,0 116.34,6.68 169.04,20.05 53.03,13.37 100.6,34.9 143.37,64.98 41.4,28.97 74.59,66.84 99.22,113.63 24.64,46.78 36.96,103.22 36.96,168.95 0,59.78 -8.21,112.14 -24.97,157.8 -16.77,45.67 -41.75,85.41 -74.25,118.83 -30.11,31.19 -66.37,58.3 -108.46,80.94 -42.09,23.02 -88.63,42.33 -139.61,58.3 70.15,100.63 128.66,185.65 174.85,254.71 46.53,68.7 103.34,152.61 171.09,251.01 29.43,43.82 55.77,75.75 79.73,96.17 23.61,20.42 47.21,37.51 70.49,50.5 17.44,9.29 39,16.34 65.35,21.54 26.01,4.82 47.57,7.8 65.02,8.54l0 77.98zm-527.63 -1150.7c0,-93.21 -24.63,-167.47 -74.25,-222.05 -49.27,-54.58 -119.07,-82.06 -209.07,-82.06l-170.41 0 0 661.69 131.06 0c92.39,0 169.03,-31.93 230.63,-96.17 61.24,-64.24 92.04,-151.12 92.04,-261.41zm2417.94 1150.7l-630.28 0 0 -77.98c22.58,-0.74 52.01,-3.34 87.93,-7.42 35.59,-4.46 60.22,-10.77 73.56,-18.57 20.87,-13.74 35.94,-29.7 45.51,-47.52 9.93,-17.82 14.72,-40.1 14.72,-66.84l0 -1122.11 -15.06 0 -483.84 1315.94 -49.61 0 -460.91 -1343.04 -13.01 0 0 920.86c0,89.11 5.14,157.06 15.4,203.48 10.61,46.41 26.34,79.84 47.56,99.89 14.72,15.22 45.17,29.7 91.36,43.44 45.85,14.11 75.96,21.17 90,21.91l0 77.98 -572.8 0 0 -77.98c30.11,-2.97 61.59,-8.17 94.43,-16.34 33.18,-7.8 58.51,-20.05 76.65,-36.02 23.26,-20.05 39.34,-51.24 47.9,-93.2 8.55,-41.96 13,-112.51 13,-210.91l0 -789.04c0,-45.67 -5.13,-83.18 -15.05,-112.14 -9.94,-28.97 -24.3,-52.35 -43.13,-70.55 -20.87,-19.68 -46.19,-34.16 -76.3,-43.45 -30.11,-9.66 -59.87,-14.85 -89.3,-16.34l0 -77.98 484.53 0 404.44 1159.62 347.64 -969.87c13.01,-35.65 23.62,-73.16 32.85,-111.77 8.9,-38.98 14.04,-64.98 14.38,-77.98l465.35 0 0 77.98c-18.82,0.74 -42.43,4.08 -71.52,9.66 -29.08,5.94 -50.3,11.5 -63.3,16.34 -22.93,8.91 -38.33,23.39 -46.19,43.44 -7.87,20.43 -11.97,42.71 -11.97,66.47l0 1111.71c0,25.62 4.1,46.79 11.97,64.24 7.87,17.45 23.27,32.68 46.19,45.67 11.98,7.43 33.19,14.11 63.99,20.05 30.45,6.31 54.74,9.66 72.88,10.4l0 77.98z"/>
  <polygon class="fil1" points="5781.01,932.59 5781.01,4843.07 5541.37,4843.07 5541.37,932.59 "/>
  <path class="fil1" d="M5661.19 0c65.92,0 119.82,53.9 119.82,119.82l0 174.33 -239.65 0 0 -174.33c0,-65.92 53.9,-119.82 119.83,-119.82z"/>
  <polygon class="fil1" points="5317.47,932.59 5317.47,4843.07 5077.82,4843.07 5077.82,932.59 "/>
  <path class="fil1" d="M5197.65 0c65.92,0 119.82,53.9 119.82,119.82l0 174.33 -239.65 0 0 -174.33c0,-65.92 53.9,-119.82 119.83,-119.82z"/>
  <polygon class="fil1" points="4853.92,932.59 4853.92,4843.07 4614.27,4843.07 4614.27,932.59 "/>
  <path class="fil1" d="M4734.09 0c65.93,0 119.83,53.9 119.83,119.82l0 174.33 -239.65 0 0 -174.33c0,-65.92 53.9,-119.82 119.82,-119.82z"/>
  <polygon class="fil1" points="4390.38,932.59 4390.38,4843.07 4150.73,4843.07 4150.73,932.59 "/>
  <path class="fil1" d="M4270.55 0c65.93,0 119.83,53.9 119.83,119.82l0 174.33 -239.65 0 0 -174.33c0,-65.92 53.9,-119.82 119.82,-119.82z"/>
  <path class="fil1" d="M3840.88 465.2l2249.97 0c-43.32,93.19 -73.79,192.68 -93.36,296.34l-2063.26 0c-19.56,-103.65 -50.04,-203.15 -93.36,-296.34z"/>
  <path class="fil1" d="M4965.87 6607.99l-1556.4 0c0,-390.5 409.23,-678.29 528.07,-753.67 92.5,-58.68 92.04,-169.66 -1.49,-191.98 -176.51,-42.14 -1004.47,-296.34 -1365.68,-1419.69 -405.49,-1261.07 973.97,-2161.5 985.37,-3083.11 5.48,-443.83 -250.77,-553.8 -250.77,-553.8 -280.32,229.65 -602.24,23.67 -530.79,-249.84 53.04,-202.93 368.49,-312.45 627.12,-118.47 622.42,466.81 301.5,1566.88 2.11,2162.44 -106.34,211.72 -26.29,241.03 129.34,370.75 87.45,72.9 186.62,179.84 73.65,287.43 -112.97,107.59 -482.11,471.54 -482.11,1028.11 0,556.56 365.74,938.2 783.16,938.2 417.42,0 1058.41,0 1058.41,0 0,0 640.99,0 1058.41,0 417.42,0 783.16,-381.64 783.16,-938.2 0,-556.56 -369.14,-920.52 -482.11,-1028.11 -112.97,-107.59 -13.8,-214.53 73.65,-287.43 155.64,-129.71 235.68,-159.03 129.34,-370.75 -299.39,-595.56 -620.31,-1695.63 2.11,-2162.44 258.63,-193.98 574.08,-84.46 627.12,118.47 71.45,273.51 -250.47,479.49 -530.79,249.84 0,0 -256.25,109.96 -250.77,553.8 11.39,921.61 1390.86,1822.04 985.37,3083.11 -361.21,1123.36 -1189.18,1377.55 -1365.68,1419.69 -93.53,22.33 -93.99,133.31 -1.49,191.98 118.84,75.38 528.07,363.17 528.07,753.67l-1556.4 0z"/>
  <path class="fil2" d="M1220.85 1985.18c0,0 297.25,653.98 -260.68,1079.29 0,0 -269.82,-631.12 260.68,-1079.29z"/>
  <path class="fil2" d="M1606.29 2595.59c0,0 175.74,627.04 -382.98,930.8 0,0 -154.33,-602.76 382.98,-930.8z"/>
  <path class="fil2" d="M562.68 2929.6c0,0 -134.1,637.25 443.4,903.57 0,0 114.33,-611.6 -443.4,-903.57z"/>
  <path class="fil2" d="M426.43 3822.48c0,0 87.19,645.33 720.55,702.76 0,0 -97.22,-614.56 -720.55,-702.76z"/>
  <path class="fil2" d="M1564.88 3377.83c0,0 236.37,606.78 -289.87,963.86 0,0 -212.69,-584.72 289.87,-963.86z"/>
  <path class="fil2" d="M677.03 4586.66c0,0 164.39,630.11 800.05,610.71 0,0 -170.64,-598.34 -800.05,-610.71z"/>
  <path class="fil2" d="M1657.13 4053.65c0,0 363.43,540.35 -71.92,1003.93 0,0 -335.49,-524 71.92,-1003.93z"/>
  <path class="fil2" d="M875.67 5339.44c0,0 286.72,584.68 905.75,438.95 0,0 -286.5,-552.31 -905.75,-438.95z"/>
  <path class="fil2" d="M1989.14 4707.29c0,0 363.43,540.35 -71.92,1003.93 0,0 -335.49,-524 71.92,-1003.93z"/>
  <path class="fil2" d="M1278.79 5963.95c0,0 329.14,561.89 935.71,370.82 0,0 -326.53,-529.63 -935.71,-370.82z"/>
  <path class="fil2" d="M2304.35 5285.73c0,0 443.01,477.29 85.04,1002.91 0,0 -412.88,-465.47 -85.04,-1002.91z"/>
  <path class="fil2" d="M1678.5 6541.82c0,0 473.43,447.12 1002.13,93.69 0,0 -461.89,-416.88 -1002.13,-93.69z"/>
  <path class="fil2" d="M2717.88 5699.98c0,0 379.1,408.42 72.77,858.22 0,0 -353.3,-398.32 -72.77,-858.22z"/>
  <path class="fil2" d="M8710.89 1985.18c0,0 -297.25,653.98 260.68,1079.29 0,0 269.82,-631.12 -260.68,-1079.29z"/>
  <path class="fil2" d="M8325.45 2595.59c0,0 -175.74,627.04 382.98,930.8 0,0 154.33,-602.76 -382.98,-930.8z"/>
  <path class="fil2" d="M9369.06 2929.6c0,0 134.1,637.25 -443.4,903.57 0,0 -114.33,-611.6 443.4,-903.57z"/>
  <path class="fil2" d="M9505.31 3822.48c0,0 -87.19,645.33 -720.55,702.76 0,0 97.22,-614.56 720.55,-702.76z"/>
  <path class="fil2" d="M8366.86 3377.83c0,0 -236.37,606.78 289.87,963.86 0,0 212.69,-584.72 -289.87,-963.86z"/>
  <path class="fil2" d="M9254.71 4586.66c0,0 -164.39,630.11 -800.05,610.71 0,0 170.64,-598.34 800.05,-610.71z"/>
  <path class="fil2" d="M8274.61 4053.65c0,0 -363.43,540.35 71.92,1003.93 0,0 335.49,-524 -71.92,-1003.93z"/>
  <path class="fil2" d="M9056.07 5339.44c0,0 -286.72,584.68 -905.75,438.95 0,0 286.5,-552.31 905.75,-438.95z"/>
  <path class="fil2" d="M7942.6 4707.29c0,0 -363.43,540.35 71.92,1003.93 0,0 335.49,-524 -71.92,-1003.93z"/>
  <path class="fil2" d="M8652.95 5963.95c0,0 -329.14,561.89 -935.71,370.82 0,0 326.53,-529.63 935.71,-370.82z"/>
  <path class="fil2" d="M7627.39 5285.73c0,0 -443.01,477.29 -85.04,1002.91 0,0 412.88,-465.47 85.04,-1002.91z"/>
  <path class="fil2" d="M8253.24 6541.82c0,0 -473.43,447.12 -1002.13,93.69 0,0 461.89,-416.88 1002.13,-93.69z"/>
  <path class="fil2" d="M7213.86 5699.98c0,0 -379.1,408.42 -72.77,858.22 0,0 353.3,-398.32 72.77,-858.22z"/>
  <path class="fil2" d="M4965.87 7041.2c342.85,-221.37 649.24,-239.53 1037.19,-141.8 450.15,113.39 775.14,22.66 1147.23,-237.16l69.17 63.16c-364.18,340.38 -649.95,400.05 -1134.35,353.87 -436.28,-41.68 -700.01,-72.93 -1119.24,154.42 -419.23,-227.34 -682.95,-196.1 -1119.24,-154.42 -484.41,46.17 -770.18,-13.49 -1134.35,-353.87l69.17 -63.16c372.09,259.82 697.07,350.55 1147.23,237.16 387.95,-97.73 694.34,-79.58 1037.19,141.8z"/>
 </g>
</svg>
